<svg version="1.1" viewBox="0 0 34 34" style="width: 40px">
<g>
<path d="m23.508 8.9549c-0.40807-0.020587-1.4484 0.091029-3.2483 1.3145-1.0039-0.28234-2.0706-0.42356-3.1373-0.42356-1.0666 0-2.1334 0.14122-3.1373 0.42356-2.3999-1.6156-3.4513-1.2853-3.4513-1.2853-0.69016 1.7254-0.25109 3.012-0.12561 3.3257-0.79996 0.87839-1.2853 2.0063-1.2853 3.3709 0 4.7997 2.9173 5.8834 5.7093 6.1971-0.36076 0.31371-0.69058 0.86253-0.80038 1.6782-0.72153 0.32939-2.5249 0.86241-3.6543-1.0355-0.23528-0.37645-0.9412-1.3024-1.9294-1.2867-1.0509 0.01568-0.42313 0.59577 0.016065 0.83105 0.53331 0.29802 1.1441 1.4123 1.2853 1.7731 0.25097 0.70585 1.0668 2.0541 4.2195 1.4737 0 1.0509 0.01607 2.0403 0.01607 2.3383 0 0.19257-0.08386 0.3974-0.27604 0.51557a11.901 11.877 0 0 0 3.498 0.5258 11.901 11.877 0 0 0 3.3607-0.48344c-0.2394-0.10848-0.34031-0.34484-0.34031-0.55793 0-0.42351 0.01607-1.7729 0.01607-3.4513 0-1.1764-0.39224-1.9287-0.84712-2.3208 2.792-0.31371 5.7254-1.3817 5.7254-6.1971 0-1.3803-0.48679-2.4926-1.2867-3.3709 0.12548-0.31371 0.56455-1.6003-0.12561-3.3257 0 0-0.06554-0.022349-0.20156-0.029211z" fill="#fff" stroke-linecap="round" stroke-width=".69935"/>
<path d="m1.0929 17 15.907-15.907 15.907 15.907-15.907 15.907z" fill="none" stroke="#fff" stroke-width="1.061px"/>
</g>
</svg>
