<svg version="1.1" viewBox="0 0 34 34" style="width: 40px"><g><path d="m11.348 8.6757a1.8226 1.8226 0 0 0 0 3.6441 1.8101 1.8101 0 0 0 1.8541-1.7664v-0.0556a1.8101 1.8101 0 0 0-1.7964-1.822zm9.5122 5.0234a3.5824 3.5824 0 0 0-3.0132 1.6253h-0.08768v-1.3708h-2.9533v10.058h3.1415v-5.3485a2.0866 2.0866 0 0 1 1.8862-2.2519h0.11976c0.9993 0 1.7408 0.62959 1.7408 2.2134v5.387h3.1415l0.02567-6.1098c0-3.023-1.9238-4.198-3.8344-4.198a3.5824 3.5824 0 0 0-0.16681-0.0043zm-11.082 0.25449v10.058h3.1415v-10.058z" fill="#fff"/><path d="M 1.178359,17 17,1.178359 32.82164,17 17,32.82164 Z" fill="none" stroke="#fff"/></g></svg>